<?xml version="1.0" encoding="utf-8"?>
<!-- Generator: Adobe Illustrator 16.0.0, SVG Export Plug-In . SVG Version: 6.00 Build 0)  -->
<!DOCTYPE svg PUBLIC "-//W3C//DTD SVG 1.1//EN" "http://www.w3.org/Graphics/SVG/1.1/DTD/svg11.dtd">
<svg version="1.1" id="Layer_1" xmlns="http://www.w3.org/2000/svg" xmlns:xlink="http://www.w3.org/1999/xlink" x="0px" y="0px"
	 width="475.374px" height="475.294px" viewBox="0 0 475.374 475.294" enable-background="new 0 0 475.374 475.294"
	 xml:space="preserve">
<rect x="0.081" fill="#97979D" width="475.293" height="475.294"/>
<path fill="#5B5B64" d="M471.845,445.892c0,12.341-9.899,22.344-22.109,22.344H22.191c-12.211,0-22.11-10.003-22.11-22.344V31.756
	c0-12.34,9.899-22.344,22.11-22.344h427.544c12.21,0,22.109,10.004,22.109,22.344V445.892z"/>
<path fill-opacity="0.383" d="M0,447.719v27.119h474.374v-27.119c-4.506,13.575-15.796,20.361-33.876,20.361H27.12
	C13.574,468.08,4.534,461.294,0,447.719z"/>
<path opacity="0.324" fill="#393939" enable-background="new    " d="M367.773,388.786l-0.922-161.556h-13.69
	c0.309-49.628,0.309-21.326,0-70.954c-34.14-15.031-65.569-35.595-93.02-60.854H127.237L1,277.908v163.004
	c0,20.054,13.163,26.592,26.59,26.592h282.222L367.773,388.786z"/>
<g opacity="0.3">
	<path d="M270.584,265.886c-2.896,0.042-4.036,0.526-4.036,1.799c0,3.686,0,7.371,0,11.013c0,1.314,1.141,1.843,4.036,1.843h64.194
		c3.026,0,4.08-0.528,4.08-1.886v-10.75c0-1.492-1.054-2.019-4.388-2.019h-31.724H270.584z"/>
	<path d="M287.784,344.647c0.129-0.111,0.251-0.236,0.362-0.365c1.388-1.586,1.225-3.998-0.362-5.387
		c-0.103-0.115-0.214-0.227-0.33-0.329c-1.646-1.466-4.172-1.315-5.637,0.329c-1.395,1.377-2.714,2.824-3.948,4.346
		c-1.712-1.757-2.809-3.158-4.081-4.388c-0.104-0.116-0.215-0.228-0.331-0.33c-1.647-1.466-4.17-1.315-5.637,0.33
		c-0.141,0.124-0.273,0.257-0.396,0.398c-1.43,1.646-1.251,4.139,0.396,5.569c1.228,1.316,2.721,2.5,4.389,3.994
		c-1.625,1.443-2.853,2.498-3.994,3.639c-2.236,2.24-2.5,4.477-0.657,6.362c1.843,1.89,4.257,1.667,6.581-0.655
		c1.097-1.097,2.063-2.369,3.467-3.993c1.008,1.272,1.537,1.975,2.148,2.63c0.646,0.742,1.353,1.433,2.106,2.065
		c0.027,0.026,0.056,0.056,0.085,0.082c1.6,1.556,4.155,1.517,5.708-0.082c0.079-0.076,0.157-0.153,0.229-0.229
		c1.461-1.592,1.358-4.059-0.229-5.52c-1.054-1.492-2.545-2.679-4.388-4.389C285.021,347.146,286.511,345.962,287.784,344.647z"/>
	<path d="M268.303,302.743c-0.005,0-0.008,0-0.013,0c-2.279,0-4.122,1.852-4.118,4.132c0.005,2.275,1.853,4.122,4.131,4.118h5.793
		c0,2.146,0,3.903,0,5.703c0,2.275,1.845,4.121,4.125,4.121c2.276,0,4.123-1.846,4.123-4.121c0-1.885,0-3.732,0-5.879h4.87
		c3.337-0.047,5.179-1.363,5.179-3.775c-0.362-2.636-2.697-4.551-5.353-4.388h-5.004c0-2.151,0-3.904,0-5.703
		c0.029-0.278,0.029-0.557,0-0.835c-0.229-2.19-2.194-3.784-4.388-3.553c-0.122,0-0.245,0.005-0.366,0.013
		c-2.22,0.196-3.863,2.155-3.67,4.375c0,1.753,0,3.552,0,5.618C271.639,302.569,269.969,302.521,268.303,302.743z"/>
	<path d="M327.319,342.409c3.246,0,6.449,0,9.696,0c0.847,0.262,1.756,0.262,2.604,0c2.314-0.719,3.607-3.18,2.888-5.492
		c-0.718-2.314-3.178-3.608-5.491-2.889c-6.348,0-12.712,0-19.087,0c-0.342-0.047-0.689-0.047-1.035,0
		c-2.136,0.283-3.637,2.25-3.352,4.388c0,2.588,1.447,4.079,4.387,4.079h9.127L327.319,342.409z"/>
	<path d="M326.88,310.114c3.333,0,6.669,0,9.96,0c0.139,0.013,0.276,0.021,0.414,0.017c2.207-0.008,3.984-1.803,3.974-4.011
		c0.018-0.214,0.018-0.428,0-0.638c-0.176-2.25-2.14-3.925-4.388-3.749c-6.493,0-13.075,0-19.656,0
		c-0.35-0.035-0.701-0.021-1.046,0.043c-2.027,0.372-3.366,2.317-2.99,4.344c-0.018,0.283-0.003,0.57,0.045,0.85
		c0.343,2.056,2.286,3.444,4.343,3.102c3.114,0,6.272,0,9.388,0L326.88,310.114z"/>
	<path d="M318.147,351.665c-3.158,0-4.782,1.667-4.782,4.388c0,2.722,1.492,4.127,4.782,4.127h18.561
		c2.721-0.048,4.388-1.624,4.388-4.127c0-2.421-1.963-4.388-4.388-4.388c-3.115,0-6.273,0-9.434,0
		C324.247,351.665,321.308,351.665,318.147,351.665z"/>
	<path d="M375.233,388.786V244.782c0-9.696-7.858-17.552-17.551-17.552H247.331c-9.695,0-17.553,7.855-17.553,17.552v144.004
		c0,9.692,7.857,17.551,17.553,17.551h110.352C367.375,406.337,375.233,398.479,375.233,388.786z M357.683,244.782v144.004H247.331
		V244.782H357.683z"/>
	<path d="M213.588,374.35v19.788h-79.683c-0.997,0.128-2.006,0.128-3,0c-6.442-0.827-10.993-6.72-10.164-13.164V115.077
		c-0.129-0.995-0.129-2.006,0-3c0.829-6.44,6.721-10.991,13.163-10.164h132.861c13.296,6.672,66.432,46.642,86.395,59.805v51.951
		h-19.963v-25.358h-66.563c-13.281,0-19.92-6.655-19.92-19.968v-46.508H140.53V374.35h51.294H213.588z M266.767,168.343h66.432
		l-66.432-46.508V168.343z"/>
</g>
<path fill="#A8A9AB" d="M353.161,150.792v51.955h-19.963v-25.362h-66.563c-13.281,0-19.92-6.655-19.92-19.964v-46.513H140.53
	v252.515h73.058v19.792h-79.683c-0.997,0.129-2.006,0.129-3,0c-6.442-0.831-10.993-6.723-10.164-13.163V104.15
	c-0.129-0.994-0.129-2.001,0-3c0.829-6.44,6.721-10.991,13.163-10.164h132.861C280.063,97.659,333.198,137.5,353.161,150.792z
	 M333.198,157.42l-66.432-46.513v46.513H333.198z"/>
<path fill="#A8A9AB" d="M270.673,253.775c-2.896,0-4.037,0.57-4.037,2.062c0,4.08,0,8.467,0,12.854c0,1.491,1.141,2.108,4.037,2.108
	c21.384,0,42.751,0,64.105,0c3.026,0,4.08-0.569,4.08-2.193v-12.508c0-1.753-1.054-2.323-4.388-2.323h-31.724H270.673z"/>
<path fill="#A8A9AB" d="M287.784,340.738c0.122-0.106,0.236-0.218,0.343-0.339c1.41-1.602,1.258-4.04-0.343-5.449
	c-0.103-0.116-0.214-0.228-0.33-0.33c-1.646-1.466-4.172-1.32-5.637,0.33c-1.386,1.384-2.704,2.832-3.948,4.34
	c-1.712-1.71-2.809-3.158-4.081-4.388c-0.084-0.09-0.171-0.18-0.265-0.261c-1.649-1.504-4.201-1.384-5.703,0.261
	c-0.141,0.124-0.273,0.258-0.396,0.399c-1.43,1.648-1.251,4.143,0.396,5.57c1.228,1.362,2.721,2.503,4.389,4.036
	c-1.625,1.448-2.853,2.46-3.994,3.6c-2.236,2.236-2.5,4.473-0.657,6.362c1.843,1.886,4.257,1.711,6.581-0.617
	c1.097-1.139,2.063-2.412,3.467-3.994c1.008,1.23,1.537,1.977,2.148,2.594c0.658,0.745,1.362,1.448,2.106,2.104
	c0.027,0.03,0.056,0.056,0.085,0.086c1.6,1.551,4.155,1.513,5.708-0.086c0.079-0.073,0.157-0.15,0.229-0.231
	c1.461-1.585,1.358-4.058-0.229-5.515c-1.054-1.539-2.545-2.721-4.388-4.389C285.021,343.199,286.511,342.011,287.784,340.738z"/>
<path fill="#A8A9AB" d="M268.303,298.181c-0.005,0-0.008,0-0.013,0c-2.279,0-4.122,1.851-4.118,4.131
	c0.005,2.275,1.853,4.122,4.131,4.118h5.793c0,2.146,0,3.946,0,5.703c0,2.279,1.845,4.122,4.125,4.122
	c2.276,0,4.123-1.843,4.123-4.122c0-1.843,0-3.729,0-5.879h4.828c3.333,0,5.177-1.362,5.177-3.733
	c-0.342-2.647-2.689-4.571-5.354-4.387h-5.002c0-2.147,0-3.946,0-5.704c0.264-0.848,0.264-1.752,0-2.601
	c-0.721-2.313-3.178-3.607-5.49-2.888c-2.317,0.715-3.608,3.175-2.891,5.488c0,1.801,0,3.557,0,5.66L268.303,298.181z"/>
<path fill="#A8A9AB" d="M327.319,338.854c3.246,0,6.449,0,9.696,0c0.212,0.018,0.427,0.018,0.639,0
	c2.247-0.176,3.925-2.143,3.749-4.389c0.028-0.278,0.028-0.557,0-0.831c-0.231-2.193-2.195-3.786-4.388-3.557
	c-6.348,0-12.712,0-19.087,0c-0.342-0.047-0.689-0.047-1.035,0c-2.136,0.287-3.637,2.25-3.352,4.388
	c0,2.589,1.315,4.127,4.387,4.127c3.072,0,6.099,0,9.127,0L327.319,338.854z"/>
<path fill="#A8A9AB" d="M326.923,306.382h9.917c0.139,0.018,0.276,0.021,0.414,0.021c2.207-0.008,3.984-1.809,3.974-4.01
	c0.014-0.186,0.014-0.365,0-0.545c-0.149-2.274-2.114-3.993-4.388-3.844c-6.493,0-13.075,0-19.656,0
	c-0.384-0.047-0.771-0.03-1.15,0.048c-1.995,0.398-3.289,2.344-2.886,4.341c-0.014,0.248,0.002,0.501,0.038,0.749
	c0.316,2.083,2.265,3.515,4.35,3.197h9.388V306.382z"/>
<path fill="#A8A9AB" d="M327.274,347.719c-3.027,0-5.967-0.266-9.127,0c-3.158,0.262-4.782,1.667-4.782,4.388
	c0,2.717,1.492,4.122,4.782,4.122c6.172,0,12.36,0,18.561,0c2.721,0,4.388-1.624,4.388-4.079c0-2.426-1.963-4.389-4.388-4.389
	c-3.115,0-6.273,0-9.434,0V347.719z"/>
<path fill="#A8A9AB" d="M375.233,377.859V233.855c0-9.692-7.858-17.55-17.551-17.55H247.331c-9.695,0-17.553,7.858-17.553,17.55
	v144.004c0,9.696,7.857,17.551,17.553,17.551h110.352C367.375,395.41,375.233,387.556,375.233,377.859z M357.683,233.855v144.004
	H247.331V233.855H357.683z"/>
<rect x="23.981" y="32.408" fill="#008B00" width="223.471" height="162.525"/>
<circle fill="#FF0000" cx="135.48" cy="112.253" r="51.498"/>
</svg>
